STARTFONT 2.1
FONT -FontForge-Vegan Style Personal Use-Book-R-Normal--16-150-75-75-P-108-ISO10646-1
SIZE 15 75 75
FONTBOUNDINGBOX 51 33 -10 -11
COMMENT "Generated by fontforge, http://fontforge.sourceforge.net"
COMMENT "Copyright (c) 2018 by Billy Argel. All rights reserved."
STARTPROPERTIES 41
FOUNDRY "FontForge"
FAMILY_NAME "Vegan Style Personal Use"
WEIGHT_NAME "Book"
SLANT "R"
SETWIDTH_NAME "Normal"
ADD_STYLE_NAME ""
PIXEL_SIZE 16
POINT_SIZE 150
RESOLUTION_X 75
RESOLUTION_Y 75
SPACING "P"
AVERAGE_WIDTH 108
CHARSET_REGISTRY "ISO10646"
CHARSET_ENCODING "1"
FONTNAME_REGISTRY ""
CHARSET_COLLECTIONS "ISO10646-1"
FONT_NAME "VeganStylePersonalUse"
FACE_NAME "Vegan Style Personal Use "
COPYRIGHT "Copyright (c) 2018 by Billy Argel. All rights reserved."
FONT_VERSION "1.000"
FONT_ASCENT 12
FONT_DESCENT 4
UNDERLINE_POSITION -2
UNDERLINE_THICKNESS 1
X_HEIGHT 8
CAP_HEIGHT 16
DEFAULT_CHAR 271
RAW_ASCENT 750
RAW_DESCENT 250
NORM_SPACE 4
RELATIVE_WEIGHT 40
RELATIVE_SETWIDTH 50
SUPERSCRIPT_X 0
SUPERSCRIPT_Y 7
SUPERSCRIPT_SIZE 10
SUBSCRIPT_X 0
SUBSCRIPT_Y 2
SUBSCRIPT_SIZE 10
FIGURE_WIDTH 20
AVG_LOWERCASE_WIDTH 73
AVG_UPPERCASE_WIDTH 144
ENDPROPERTIES
CHARS 284
STARTCHAR NULL
ENCODING 0
SWIDTH 0 0
DWIDTH 0 0
BBX 1 1 0 0
BITMAP
00
ENDCHAR
STARTCHAR nonmarkingreturn
ENCODING 13
SWIDTH 225 0
DWIDTH 4 0
BBX 1 1 0 0
BITMAP
00
ENDCHAR
STARTCHAR space
ENCODING 32
SWIDTH 225 0
DWIDTH 4 0
BBX 1 1 0 0
BITMAP
00
ENDCHAR
STARTCHAR zero
ENCODING 48
SWIDTH 1219 0
DWIDTH 20 0
BBX 16 16 2 0
BITMAP
0100
0100
0180
0EF0
0760
0240
0340
06C0
2086
DF3F
FAFF
DFD5
9FDE
FEF7
FFFE
EF7F
ENDCHAR
STARTCHAR one
ENCODING 49
SWIDTH 1219 0
DWIDTH 20 0
BBX 16 16 2 0
BITMAP
0100
0100
0180
0EF0
0760
0240
0340
06C0
2086
DF3F
FAFF
DFD5
9FDE
FEF7
FFFE
EF7F
ENDCHAR
STARTCHAR two
ENCODING 50
SWIDTH 1219 0
DWIDTH 20 0
BBX 16 16 2 0
BITMAP
0100
0100
0180
0EF0
0760
0240
0340
06C0
2086
DF3F
FAFF
DFD5
9FDE
FEF7
FFFE
EF7F
ENDCHAR
STARTCHAR three
ENCODING 51
SWIDTH 1219 0
DWIDTH 20 0
BBX 16 16 2 0
BITMAP
0100
0100
0180
0EF0
0760
0240
0340
06C0
2086
DF3F
FAFF
DFD5
9FDE
FEF7
FFFE
EF7F
ENDCHAR
STARTCHAR four
ENCODING 52
SWIDTH 1219 0
DWIDTH 20 0
BBX 16 16 2 0
BITMAP
0100
0100
0180
0EF0
0760
0240
0340
06C0
2086
DF3F
FAFF
DFD5
9FDE
FEF7
FFFE
EF7F
ENDCHAR
STARTCHAR five
ENCODING 53
SWIDTH 1219 0
DWIDTH 20 0
BBX 16 16 2 0
BITMAP
0100
0100
0180
0EF0
0760
0240
0340
06C0
2086
DF3F
FAFF
DFD5
9FDE
FEF7
FFFE
EF7F
ENDCHAR
STARTCHAR six
ENCODING 54
SWIDTH 1219 0
DWIDTH 20 0
BBX 16 16 2 0
BITMAP
0100
0100
0180
0EF0
0760
0240
0340
06C0
2086
DF3F
FAFF
DFD5
9FDE
FEF7
FFFE
EF7F
ENDCHAR
STARTCHAR seven
ENCODING 55
SWIDTH 1219 0
DWIDTH 20 0
BBX 16 16 2 0
BITMAP
0100
0100
0180
0EF0
0760
0240
0340
06C0
2086
DF3F
FAFF
DFD5
9FDE
FEF7
FFFE
EF7F
ENDCHAR
STARTCHAR eight
ENCODING 56
SWIDTH 1219 0
DWIDTH 20 0
BBX 16 16 2 0
BITMAP
0100
0100
0180
0EF0
0760
0240
0340
06C0
2086
DF3F
FAFF
DFD5
9FDE
FEF7
FFFE
EF7F
ENDCHAR
STARTCHAR nine
ENCODING 57
SWIDTH 1219 0
DWIDTH 20 0
BBX 16 16 2 0
BITMAP
0100
0100
0180
0EF0
0760
0240
0340
06C0
2086
DF3F
FAFF
DFD5
9FDE
FEF7
FFFE
EF7F
ENDCHAR
STARTCHAR A
ENCODING 65
SWIDTH 1301 0
DWIDTH 21 0
BBX 28 20 0 -2
BITMAP
00000020
00000030
00000070
000000E0
000001C0
000007C0
00000F80
00001F00
00003B00
07807600
1F87EC00
30DF9C00
60531800
400E3000
801C7000
80386000
80E0E000
C1C0C000
7F00C000
3C004000
ENDCHAR
STARTCHAR B
ENCODING 66
SWIDTH 902 0
DWIDTH 14 0
BBX 18 19 0 -2
BITMAP
000F80
0038C0
00F8C0
01DCC0
03B9C0
073380
0E6700
0CFE00
1CFC00
19CC00
318E00
130E00
030E00
760C00
E61C00
E43800
60F000
7FE000
1F0000
ENDCHAR
STARTCHAR C
ENCODING 67
SWIDTH 639 0
DWIDTH 10 0
BBX 15 19 1 -3
BITMAP
001E
0076
00E6
018C
030C
0718
0E20
1C00
1800
3800
3000
7020
6060
E040
E080
C100
E600
FC00
7800
ENDCHAR
STARTCHAR D
ENCODING 68
SWIDTH 902 0
DWIDTH 14 0
BBX 17 19 0 -2
BITMAP
003F00
00E380
03E180
076180
0EE180
1CC180
39C180
338300
730300
670600
460E00
4E0C00
0C1800
183000
D86000
D1C000
C38000
7E0000
380000
ENDCHAR
STARTCHAR E
ENCODING 69
SWIDTH 812 0
DWIDTH 13 0
BBX 20 19 0 -2
BITMAP
000030
003FF0
01FFF0
07FC00
1F7000
387000
70E000
61C200
61FE00
67FC00
3F0000
3E0000
660000
4C0000
CC0000
DC0000
187000
0FF000
0FC000
ENDCHAR
STARTCHAR F
ENCODING 70
SWIDTH 752 0
DWIDTH 12 0
BBX 20 20 0 -3
BITMAP
000030
001FF0
01FFF0
07FE00
1F7000
3C6000
70E000
61C000
61FC00
63FC00
6F8000
1E0000
260000
4C0000
CC0000
D80000
580000
300000
300000
200000
ENDCHAR
STARTCHAR G
ENCODING 71
SWIDTH 962 0
DWIDTH 15 0
BBX 21 24 -1 -7
BITMAP
0001F0
000FF8
003E18
007818
00F018
01E030
03C070
0780E0
0700C0
0E00C0
0E01C0
1C0180
1C0380
180300
1BC700
1FCE00
3C3E00
7FEC00
CF9800
C03000
C07000
C1E000
7F8000
3E0000
ENDCHAR
STARTCHAR H
ENCODING 72
SWIDTH 1218 0
DWIDTH 19 0
BBX 25 19 0 -2
BITMAP
0001C000
0007E180
000E2380
00186700
00306600
0060CE00
0060DC00
00C19800
00833800
03FF3000
0FFF6000
3C1FE000
7039E000
4070F000
80E1A000
81C18000
87830000
FE030000
7C020000
ENDCHAR
STARTCHAR I
ENCODING 73
SWIDTH 615 0
DWIDTH 10 0
BBX 16 19 0 -3
BITMAP
000F
007F
01E6
038E
071C
0E18
1C38
3830
7070
6060
E0C0
40C0
0180
0180
0180
0300
0300
03C0
0180
ENDCHAR
STARTCHAR J
ENCODING 74
SWIDTH 1007 0
DWIDTH 16 0
BBX 22 25 -1 -8
BITMAP
00001C
00007C
0001EC
00039C
000718
001E38
001C38
003870
007070
0060E0
0060E0
0001C0
07C180
0FC380
184700
308600
600E00
401C00
C03800
807000
80E000
C1C000
C38000
7F0000
3C0000
ENDCHAR
STARTCHAR K
ENCODING 75
SWIDTH 857 0
DWIDTH 14 0
BBX 22 21 -1 -4
BITMAP
000008
00201C
003038
007078
0070F0
0061E0
00E3C0
00C780
01CE00
039C00
037800
07E000
07C000
0F0000
1E0000
3B0000
738000
61C000
41F000
C0FF00
003C00
ENDCHAR
STARTCHAR L
ENCODING 76
SWIDTH 617 0
DWIDTH 10 0
BBX 16 18 0 -3
BITMAP
0018
0018
0038
0030
0070
0060
00C0
01C0
0180
0300
0700
0600
0C00
1800
3000
6001
FFFE
03FC
ENDCHAR
STARTCHAR M
ENCODING 77
SWIDTH 1166 0
DWIDTH 19 0
BBX 25 20 0 -3
BITMAP
00384000
00F86100
0198E380
0319C700
0613CE00
04039E00
0807BC00
180F3800
101F7800
2036F000
206DF000
40ED6000
40DBC000
81BEC000
833CC000
86398000
9C798000
F8718000
60618000
0001E000
ENDCHAR
STARTCHAR N
ENCODING 78
SWIDTH 820 0
DWIDTH 13 0
BBX 19 19 1 -2
BITMAP
000040
00C1C0
03E3E0
06CFC0
0DDF80
19B700
33E600
73CE00
E78C00
C71C00
4E3800
1C3000
1C7000
386000
306000
70E000
60C000
60C000
407800
ENDCHAR
STARTCHAR O
ENCODING 79
SWIDTH 806 0
DWIDTH 13 0
BBX 16 19 0 -2
BITMAP
001E
007F
01C7
0303
0603
0C03
0803
1E07
1E07
380E
300E
701C
7038
F038
C070
C0E0
C3C0
7F80
3E00
ENDCHAR
STARTCHAR P
ENCODING 80
SWIDTH 873 0
DWIDTH 14 0
BBX 18 19 1 -2
BITMAP
003F00
01FF80
03E380
0761C0
0EF1C0
1DC180
39C180
738380
670300
E70600
DE0C00
FC3800
9CE000
1F8000
300000
300000
600000
600000
600000
ENDCHAR
STARTCHAR Q
ENCODING 81
SWIDTH 1029 0
DWIDTH 16 0
BBX 20 23 0 -6
BITMAP
0003C0
000FF0
001C70
003030
006030
00C030
018070
01C070
03E060
0380E0
0700C0
0601C0
0F0380
0F0700
080F00
081E00
0C3C00
FFF000
FFC000
038020
00E060
007FE0
000F80
ENDCHAR
STARTCHAR R
ENCODING 82
SWIDTH 940 0
DWIDTH 15 0
BBX 18 21 0 -4
BITMAP
003F00
00FF80
03F9C0
073CC0
0E78C0
1CF0C0
38E0C0
31E180
73C100
638300
D78600
D71800
5E7000
0FC000
1B0000
190000
118000
30C000
10E000
007800
003800
ENDCHAR
STARTCHAR S
ENCODING 83
SWIDTH 797 0
DWIDTH 13 0
BBX 19 19 0 -2
BITMAP
0003C0
001FE0
003860
006040
00C1C0
01C180
018000
01C000
01C000
00E000
00F000
307000
787000
E07000
C07000
C0E000
E1C000
7F8000
3E0000
ENDCHAR
STARTCHAR T
ENCODING 84
SWIDTH 511 0
DWIDTH 8 0
BBX 22 19 1 -2
BITMAP
00FE00
07FFFC
1E23F8
387000
307000
60E000
61C000
C18000
430000
070000
060000
0C0000
1C0000
180000
380000
300000
300000
600000
200000
ENDCHAR
STARTCHAR U
ENCODING 85
SWIDTH 963 0
DWIDTH 15 0
BBX 20 19 1 -3
BITMAP
007820
03FC30
0F8C70
1E1860
3C30E0
7070C0
E0E180
C0C380
C1C300
838700
030600
070C00
061C00
0E3800
0C7800
0DF000
0F3000
003000
001800
ENDCHAR
STARTCHAR V
ENCODING 86
SWIDTH 805 0
DWIDTH 13 0
BBX 20 19 1 -2
BITMAP
000010
006030
03F030
07B060
1E60C0
3C61C0
78C180
71C300
E18600
430C00
071800
0E3000
0C6000
1CC000
398000
330000
7E0000
780000
700000
ENDCHAR
STARTCHAR W
ENCODING 87
SWIDTH 1308 0
DWIDTH 21 0
BBX 28 19 1 -3
BITMAP
00180010
01FC0030
07EC2030
0F1C3060
1C3870C0
3830E1C0
7070C180
E0E1C300
C1C38600
C1C30C00
03871800
030E3000
071C6000
0E3CC000
0C798000
0CF30000
0DFE0000
0F780000
04700000
ENDCHAR
STARTCHAR X
ENCODING 88
SWIDTH 1083 0
DWIDTH 17 0
BBX 28 20 0 -3
BITMAP
000200F0
000703F0
000F0620
00071C00
00073000
00076000
0006C000
00078000
00070000
00060000
00060000
001E0000
00360000
00660000
00C60000
01860000
07060000
1E070000
F807E000
6003C000
ENDCHAR
STARTCHAR Y
ENCODING 89
SWIDTH 917 0
DWIDTH 15 0
BBX 23 24 -2 -7
BITMAP
000F80
007F86
00F98E
03C30C
07871C
0E0E18
0C0C38
1C1C30
183870
0830E0
0070C0
00E1C0
00C380
01C780
07CF00
19BE00
31EE00
601C00
403800
C07000
C0E000
E1C000
7F8000
3E0000
ENDCHAR
STARTCHAR Z
ENCODING 90
SWIDTH 850 0
DWIDTH 14 0
BBX 20 19 0 -3
BITMAP
0007F0
001C70
0071E0
0063C0
004780
001F00
003C00
00F800
01E000
07C000
0F0000
1E0000
380000
700000
600000
C00000
700180
3FFF80
0FFE00
ENDCHAR
STARTCHAR grave
ENCODING 96
SWIDTH 390 0
DWIDTH 6 0
BBX 3 3 2 10
BITMAP
80
C0
60
ENDCHAR
STARTCHAR a
ENCODING 97
SWIDTH 574 0
DWIDTH 9 0
BBX 12 10 0 -1
BITMAP
0700
0F80
1D80
3900
7330
6320
E640
CE80
F700
4600
ENDCHAR
STARTCHAR b
ENCODING 98
SWIDTH 511 0
DWIDTH 8 0
BBX 10 15 0 0
BITMAP
0200
0300
0300
0700
0600
0C00
1F80
1FC0
38C0
3180
6380
6300
C600
FC00
F800
ENDCHAR
STARTCHAR c
ENCODING 99
SWIDTH 413 0
DWIDTH 7 0
BBX 9 10 0 0
BITMAP
0300
0F00
1D00
3800
7080
6180
E300
E600
FC00
7000
ENDCHAR
STARTCHAR d
ENCODING 100
SWIDTH 574 0
DWIDTH 9 0
BBX 13 15 0 -1
BITMAP
0018
0018
0038
0030
0070
0760
0FC0
1DC0
3980
7320
6330
E640
CE80
F780
6600
ENDCHAR
STARTCHAR e
ENCODING 101
SWIDTH 413 0
DWIDTH 7 0
BBX 9 10 0 0
BITMAP
0300
0F00
1D00
3A00
7280
6D80
F300
E600
FC00
7000
ENDCHAR
STARTCHAR f
ENCODING 102
SWIDTH 235 0
DWIDTH 4 0
BBX 11 21 -3 -6
BITMAP
0020
0060
0060
00E0
00C0
0180
0380
0300
0600
0680
0D80
1D00
1A00
3C00
3000
7000
7000
D000
E000
E000
C000
ENDCHAR
STARTCHAR g
ENCODING 103
SWIDTH 496 0
DWIDTH 8 0
BBX 14 16 -5 -7
BITMAP
0038
007C
00EC
01C8
039C
0318
0730
0670
07E0
02C0
3F80
7FC0
C3E0
86F0
8C00
F000
ENDCHAR
STARTCHAR h
ENCODING 104
SWIDTH 511 0
DWIDTH 8 0
BBX 11 15 0 0
BITMAP
0200
0300
0300
0700
0600
0C00
1F80
1F80
3B00
3700
6660
6EC0
CD80
CF00
8E00
ENDCHAR
STARTCHAR i
ENCODING 105
SWIDTH 263 0
DWIDTH 4 0
BBX 8 14 0 0
BITMAP
02
07
06
06
14
18
18
30
74
64
C8
D0
E0
C0
ENDCHAR
STARTCHAR j
ENCODING 106
SWIDTH 180 0
DWIDTH 3 0
BBX 17 21 -10 -7
BITMAP
000180
000180
000180
000300
000100
000400
000600
000E00
000C00
001C00
001800
003000
003000
006000
006000
1FC000
7FC000
C1E000
837000
8E0000
780000
ENDCHAR
STARTCHAR k
ENCODING 107
SWIDTH 483 0
DWIDTH 8 0
BBX 10 15 0 0
BITMAP
0300
0300
0700
0600
0E00
0D00
1F80
1F80
3F00
7640
66C0
E180
F300
FE00
9C00
ENDCHAR
STARTCHAR l
ENCODING 108
SWIDTH 269 0
DWIDTH 4 0
BBX 8 15 0 0
BITMAP
01
03
03
06
0E
0C
1C
18
30
74
66
E8
D8
F0
E0
ENDCHAR
STARTCHAR m
ENCODING 109
SWIDTH 753 0
DWIDTH 12 0
BBX 15 9 0 0
BITMAP
1BB0
1FF8
3BB0
3774
6666
6EE8
CCD8
CCF0
88E0
ENDCHAR
STARTCHAR n
ENCODING 110
SWIDTH 511 0
DWIDTH 8 0
BBX 11 9 0 0
BITMAP
1B80
1F80
3B00
3700
6660
6EC0
CD80
CF00
8E00
ENDCHAR
STARTCHAR o
ENCODING 111
SWIDTH 471 0
DWIDTH 8 0
BBX 8 10 0 0
BITMAP
02
0F
1B
33
61
63
62
E6
7C
78
ENDCHAR
STARTCHAR p
ENCODING 112
SWIDTH 555 0
DWIDTH 9 0
BBX 12 13 -2 -4
BITMAP
06E0
07F0
0E30
0C60
18E0
38C0
3180
7F00
7E00
6000
C000
C000
4000
ENDCHAR
STARTCHAR q
ENCODING 113
SWIDTH 474 0
DWIDTH 8 0
BBX 9 15 0 -6
BITMAP
0700
0F80
1D80
3B00
7300
6300
E700
CE00
FC00
7C00
1800
3800
3000
3000
6000
ENDCHAR
STARTCHAR r
ENCODING 114
SWIDTH 390 0
DWIDTH 6 0
BBX 8 11 1 -1
BITMAP
10
32
3E
3E
5C
BB
72
64
F8
F0
40
ENDCHAR
STARTCHAR s
ENCODING 115
SWIDTH 309 0
DWIDTH 5 0
BBX 8 11 -1 0
BITMAP
03
07
06
0E
1C
3C
6C
6C
EC
D8
70
ENDCHAR
STARTCHAR t
ENCODING 116
SWIDTH 269 0
DWIDTH 4 0
BBX 11 14 0 0
BITMAP
0300
0300
07E0
0FC0
3E00
5C00
1800
3800
7000
6600
6C00
D800
F000
E000
ENDCHAR
STARTCHAR u
ENCODING 117
SWIDTH 534 0
DWIDTH 9 0
BBX 11 10 0 0
BITMAP
1100
1980
3980
3380
7320
6640
EEC0
DD80
FF00
EE00
ENDCHAR
STARTCHAR v
ENCODING 118
SWIDTH 391 0
DWIDTH 6 0
BBX 10 9 -1 0
BITMAP
0C40
0CC0
1C80
1900
3300
7600
6C00
F800
E000
ENDCHAR
STARTCHAR w
ENCODING 119
SWIDTH 670 0
DWIDTH 11 0
BBX 13 9 0 0
BITMAP
1988
1988
3B98
3330
6760
6EC0
CF80
FF00
EE00
ENDCHAR
STARTCHAR x
ENCODING 120
SWIDTH 489 0
DWIDTH 8 0
BBX 12 10 -2 -1
BITMAP
0610
0630
0E60
1E80
1730
0620
0E40
3F80
6300
8200
ENDCHAR
STARTCHAR y
ENCODING 121
SWIDTH 444 0
DWIDTH 7 0
BBX 15 17 -6 -7
BITMAP
0044
0066
00E6
00CE
01CC
0198
03B8
0370
03F0
03E0
0060
1FC0
7FE0
61F0
8370
8600
7800
ENDCHAR
STARTCHAR z
ENCODING 122
SWIDTH 375 0
DWIDTH 6 0
BBX 14 18 -6 -7
BITMAP
0020
0030
0064
007C
00FC
00B8
0170
00E0
01C0
03C0
04E0
00C0
1FC0
7FC0
61E0
8370
8600
7800
ENDCHAR
STARTCHAR dieresis
ENCODING 168
SWIDTH 601 0
DWIDTH 10 0
BBX 5 2 3 10
BITMAP
D8
D8
ENDCHAR
STARTCHAR macron
ENCODING 175
SWIDTH 390 0
DWIDTH 6 0
BBX 5 2 1 9
BITMAP
78
80
ENDCHAR
STARTCHAR acute
ENCODING 180
SWIDTH 390 0
DWIDTH 6 0
BBX 3 3 2 10
BITMAP
20
60
C0
ENDCHAR
STARTCHAR cedilla
ENCODING 184
SWIDTH 601 0
DWIDTH 10 0
BBX 3 4 2 -3
BITMAP
60
60
60
C0
ENDCHAR
STARTCHAR Agrave
ENCODING 192
SWIDTH 1301 0
DWIDTH 21 0
BBX 28 24 0 -2
BITMAP
00000080
000000C0
000000E0
00000020
00000020
00000030
00000070
000000E0
000001C0
000007C0
00000F80
00001F00
00003B00
07807600
1F87EC00
30DF9C00
60531800
400E3000
801C7000
80386000
80E0E000
C1C0C000
7F00C000
3C004000
ENDCHAR
STARTCHAR Aacute
ENCODING 193
SWIDTH 1301 0
DWIDTH 21 0
BBX 30 23 0 -2
BITMAP
00000004
0000000C
00000018
00000020
00000030
00000070
000000E0
000001C0
000007C0
00000F80
00001F00
00003B00
07807600
1F87EC00
30DF9C00
60531800
400E3000
801C7000
80386000
80E0E000
C1C0C000
7F00C000
3C004000
ENDCHAR
STARTCHAR Acircumflex
ENCODING 194
SWIDTH 1301 0
DWIDTH 21 0
BBX 29 22 0 -2
BITMAP
00000010
00000038
00000068
00000030
00000070
000000E0
000001C0
000007C0
00000F80
00001F00
00003B00
07807600
1F87EC00
30DF9C00
60531800
400E3000
801C7000
80386000
80E0E000
C1C0C000
7F00C000
3C004000
ENDCHAR
STARTCHAR Atilde
ENCODING 195
SWIDTH 1301 0
DWIDTH 21 0
BBX 30 22 0 -2
BITMAP
00000004
0000003C
00000068
00000030
00000070
000000E0
000001C0
000007C0
00000F80
00001F00
00003B00
07807600
1F87EC00
30DF9C00
60531800
400E3000
801C7000
80386000
80E0E000
C1C0C000
7F00C000
3C004000
ENDCHAR
STARTCHAR Adieresis
ENCODING 196
SWIDTH 1301 0
DWIDTH 21 0
BBX 30 22 0 -2
BITMAP
0000006C
0000006C
00000020
00000030
00000070
000000E0
000001C0
000007C0
00000F80
00001F00
00003B00
07807600
1F87EC00
30DF9C00
60531800
400E3000
801C7000
80386000
80E0E000
C1C0C000
7F00C000
3C004000
ENDCHAR
STARTCHAR Aring
ENCODING 197
SWIDTH 1301 0
DWIDTH 21 0
BBX 30 23 0 -2
BITMAP
0000000C
0000001C
00000028
00000030
00000030
00000070
000000E0
000001C0
000007C0
00000F80
00001F00
00003B00
07807600
1F87EC00
30DF9C00
60531800
400E3000
801C7000
80386000
80E0E000
C1C0C000
7F00C000
3C004000
ENDCHAR
STARTCHAR AE
ENCODING 198
SWIDTH 2114 0
DWIDTH 34 0
BBX 41 19 0 -2
BITMAP
000000200080
00000070FF80
000000EFFF00
000001FFF800
000003F30000
000007C78000
00000F870000
00001B0E1000
0780360FF000
1F806F3FE000
30CF9FFC0000
605D19F00000
400633700000
C00C72600000
801864600000
8030E4C00000
C0C0C2C38000
6380C0FF8000
3E00407E0000
ENDCHAR
STARTCHAR Ccedilla
ENCODING 199
SWIDTH 639 0
DWIDTH 10 0
BBX 15 21 1 -5
BITMAP
001E
0076
00E6
018C
030C
0718
0E20
1C00
1800
3800
3000
7020
6060
E040
E080
C100
E600
FC00
7800
6000
E000
ENDCHAR
STARTCHAR Egrave
ENCODING 200
SWIDTH 812 0
DWIDTH 13 0
BBX 20 22 0 -2
BITMAP
001000
003800
000800
0005F0
007FF0
03FFE0
0FF000
1E7000
386000
70E000
61C600
61FE00
67FC00
3F0000
3E0000
660000
4C0000
CC0000
CC0000
187000
1FF000
0FC000
ENDCHAR
STARTCHAR Eacute
ENCODING 201
SWIDTH 812 0
DWIDTH 13 0
BBX 20 22 0 -2
BITMAP
000200
000600
000C00
0011F0
007FF0
03FFE0
0FF000
1E7000
386000
70E000
61C600
61FE00
67FC00
3F0000
3E0000
660000
4C0000
CC0000
CC0000
187000
1FF000
0FC000
ENDCHAR
STARTCHAR Ecircumflex
ENCODING 202
SWIDTH 812 0
DWIDTH 13 0
BBX 20 21 0 -2
BITMAP
000C00
001200
0001F0
007FF0
03FFE0
0FF000
1E7000
386000
70E000
61C600
61FE00
67FC00
3F0000
3E0000
660000
4C0000
CC0000
CC0000
187000
1FF000
0FC000
ENDCHAR
STARTCHAR Edieresis
ENCODING 203
SWIDTH 812 0
DWIDTH 13 0
BBX 20 21 0 -2
BITMAP
001B00
001B00
0001F0
007FF0
03FFE0
0FF000
1E7000
386000
70E000
61C600
61FE00
67FC00
3F0000
3E0000
660000
4C0000
CC0000
CC0000
187000
1FF000
0FC000
ENDCHAR
STARTCHAR Igrave
ENCODING 204
SWIDTH 615 0
DWIDTH 10 0
BBX 16 23 0 -3
BITMAP
0008
000C
000E
0002
000F
007F
01E6
038E
0F1C
1E18
1C38
3830
7070
6060
E0C0
40C0
0180
0180
0180
0300
0300
03C0
0180
ENDCHAR
STARTCHAR Iacute
ENCODING 205
SWIDTH 615 0
DWIDTH 10 0
BBX 18 23 0 -3
BITMAP
000040
0000C0
000180
000200
000F00
007F00
01E600
038E00
0F1C00
1E1800
1C3800
383000
707000
606000
E0C000
40C000
018000
018000
018000
030000
030000
03C000
018000
ENDCHAR
STARTCHAR Icircumflex
ENCODING 206
SWIDTH 615 0
DWIDTH 10 0
BBX 17 22 0 -3
BITMAP
000100
000380
000280
000F00
007F00
01E600
038E00
0F1C00
1E1800
1C3800
383000
707000
606000
E0C000
40C000
018000
018000
018000
030000
030000
03C000
018000
ENDCHAR
STARTCHAR Idieresis
ENCODING 207
SWIDTH 615 0
DWIDTH 10 0
BBX 18 22 0 -3
BITMAP
0003C0
0006C0
000000
001F00
007F00
01EE00
078E00
0F1C00
1C1800
183800
383000
706000
60E000
E0C000
40C000
018000
018000
018000
030000
030000
03C000
018000
ENDCHAR
STARTCHAR Eth
ENCODING 208
SWIDTH 902 0
DWIDTH 14 0
BBX 18 19 0 -2
BITMAP
003F00
00E380
03E1C0
0761C0
0EE1C0
1CC180
19C180
338380
738300
6F8700
DF8E00
4E0C00
0C1C00
183800
D87000
D1E000
C38000
7F0000
380000
ENDCHAR
STARTCHAR Ntilde
ENCODING 209
SWIDTH 820 0
DWIDTH 13 0
BBX 19 21 1 -2
BITMAP
000F00
000200
000040
00C1C0
03E3E0
06CFC0
0DDF80
19B700
33E600
73CE00
E78C00
C71C00
4E3800
1C3000
1C7000
386000
306000
70E000
60C000
60C000
407800
ENDCHAR
STARTCHAR Ograve
ENCODING 210
SWIDTH 806 0
DWIDTH 13 0
BBX 16 23 0 -2
BITMAP
0010
0018
0018
000C
001E
007F
01C7
0303
0603
0C03
0803
1E07
1E07
380E
300E
701C
7038
F038
C070
C0E0
C3C0
7F80
3E00
ENDCHAR
STARTCHAR Oacute
ENCODING 211
SWIDTH 806 0
DWIDTH 13 0
BBX 17 23 0 -2
BITMAP
000100
000380
000600
000000
001E00
007F00
01C700
030300
060300
0C0300
080300
1E0700
1E0700
380E00
300E00
701C00
703800
F03800
C07000
C0E000
C3C000
7F8000
3E0000
ENDCHAR
STARTCHAR Ocircumflex
ENCODING 212
SWIDTH 806 0
DWIDTH 13 0
BBX 16 22 0 -2
BITMAP
0002
000F
000A
001E
007F
01C7
0303
0603
0C03
0803
1E07
1E07
380E
300E
701C
7038
F038
C070
C0E0
C3C0
7F80
3E00
ENDCHAR
STARTCHAR Otilde
ENCODING 213
SWIDTH 806 0
DWIDTH 13 0
BBX 16 21 0 -2
BITMAP
001F
0006
001E
007F
01C7
0303
0603
0C03
0803
1E07
1E07
380E
300E
701C
7038
F038
C070
C0E0
C3C0
7F80
3E00
ENDCHAR
STARTCHAR Odieresis
ENCODING 214
SWIDTH 806 0
DWIDTH 13 0
BBX 16 22 0 -2
BITMAP
001B
001B
0000
001E
007F
01C7
0303
0603
0C03
0803
1E07
1E07
380E
300E
701C
7038
F038
C070
C0E0
C3C0
7F80
3E00
ENDCHAR
STARTCHAR multiply
ENCODING 215
SWIDTH 722 0
DWIDTH 12 0
BBX 7 6 2 2
BITMAP
14
3E
78
38
7C
D0
ENDCHAR
STARTCHAR Oslash
ENCODING 216
SWIDTH 806 0
DWIDTH 13 0
BBX 16 22 0 -3
BITMAP
0020
0020
003E
00FF
01E7
0363
06C3
0CC3
08C3
1F87
1F86
398E
330C
731C
7338
D238
C670
C6E0
C7C0
7F00
3C00
0C00
ENDCHAR
STARTCHAR Ugrave
ENCODING 217
SWIDTH 963 0
DWIDTH 15 0
BBX 20 22 1 -3
BITMAP
000100
000300
000180
003880
01FC30
07EC30
1F1870
3C38E0
7870C0
7061C0
E0E180
C1C300
C18700
038600
070C00
061C00
0E3800
0C7800
0CF000
0FB000
063000
001800
ENDCHAR
STARTCHAR Uacute
ENCODING 218
SWIDTH 963 0
DWIDTH 15 0
BBX 20 22 1 -3
BITMAP
000040
000060
0000E0
003980
01FC30
07EC30
1F1870
3C38E0
7870C0
7061C0
E0E180
C1C300
C18700
038600
070C00
061C00
0E3800
0C7800
0CF000
0FB000
063000
001800
ENDCHAR
STARTCHAR Ucircumflex
ENCODING 219
SWIDTH 963 0
DWIDTH 15 0
BBX 20 21 1 -3
BITMAP
0000C0
000140
003800
01FC30
07EC30
1F1870
3C38E0
7870C0
7061C0
E0E180
C1C300
C18700
038600
070C00
061C00
0E3800
0C7800
0CF000
0FB000
063000
001800
ENDCHAR
STARTCHAR Udieresis
ENCODING 220
SWIDTH 963 0
DWIDTH 15 0
BBX 20 21 1 -3
BITMAP
0001B0
0001E0
003800
01FC30
07EC30
1F1870
3C38E0
7870C0
7061C0
E0E180
C1C300
C18700
038600
070C00
061C00
0E3800
0C7800
0CF000
0FB000
063000
001800
ENDCHAR
STARTCHAR Yacute
ENCODING 221
SWIDTH 917 0
DWIDTH 15 0
BBX 23 27 -2 -7
BITMAP
000008
00000C
000018
000FA0
007F86
00F98E
03C30C
07871C
0E0E18
0C0C38
1C1C30
183870
0830E0
0070C0
00E1C0
00C380
01C780
07CF00
19BE00
31EE00
601C00
403800
C07000
C0E000
E1C000
7F8000
3E0000
ENDCHAR
STARTCHAR germandbls
ENCODING 223
SWIDTH 518 0
DWIDTH 8 0
BBX 14 18 -3 -3
BITMAP
00FC
01FC
03CC
02CC
0198
0198
0370
07E0
06E0
0E20
0C20
1C60
38C0
31C0
7F80
EE00
E000
C000
ENDCHAR
STARTCHAR agrave
ENCODING 224
SWIDTH 574 0
DWIDTH 9 0
BBX 12 14 0 -1
BITMAP
0600
0600
0300
0000
0700
0F80
1D80
3900
7330
6320
E640
CE80
F700
4600
ENDCHAR
STARTCHAR aacute
ENCODING 225
SWIDTH 574 0
DWIDTH 9 0
BBX 12 14 0 -1
BITMAP
00C0
01C0
0300
0000
0700
0F80
1D80
3900
7330
6320
E640
CE80
F700
4600
ENDCHAR
STARTCHAR acircumflex
ENCODING 226
SWIDTH 574 0
DWIDTH 9 0
BBX 12 12 0 -1
BITMAP
0380
0280
0700
0F80
1D80
3900
7330
6320
E640
CE80
F700
6600
ENDCHAR
STARTCHAR atilde
ENCODING 227
SWIDTH 574 0
DWIDTH 9 0
BBX 12 13 0 -1
BITMAP
03C0
0480
0000
0700
0F80
1D80
3900
7330
6320
E640
CE80
F700
4600
ENDCHAR
STARTCHAR adieresis
ENCODING 228
SWIDTH 574 0
DWIDTH 9 0
BBX 12 13 0 -1
BITMAP
0340
03C0
0000
0700
0F80
1D80
3900
7330
6320
E640
CE80
F700
4600
ENDCHAR
STARTCHAR aring
ENCODING 229
SWIDTH 574 0
DWIDTH 9 0
BBX 12 14 0 -1
BITMAP
00C0
0140
01C0
0180
0700
0F80
1D80
3900
7330
6320
E640
CE80
F700
4600
ENDCHAR
STARTCHAR ae
ENCODING 230
SWIDTH 987 0
DWIDTH 16 0
BBX 18 10 0 -1
BITMAP
070380
0F8780
3D8C80
391900
733E40
E33C80
E67180
CEF300
F77E00
461800
ENDCHAR
STARTCHAR ccedilla
ENCODING 231
SWIDTH 413 0
DWIDTH 7 0
BBX 9 12 0 -3
BITMAP
0700
0F00
1900
3000
7080
6100
E300
E600
FC00
7000
3000
7000
ENDCHAR
STARTCHAR egrave
ENCODING 232
SWIDTH 413 0
DWIDTH 7 0
BBX 9 13 0 0
BITMAP
0800
0C00
0600
0300
0F00
1D00
3A00
7280
6D80
F300
E600
FC00
7000
ENDCHAR
STARTCHAR eacute
ENCODING 233
SWIDTH 413 0
DWIDTH 7 0
BBX 11 13 0 0
BITMAP
0040
00E0
0180
0300
0F00
1D00
3A00
7280
6D80
F300
E600
FC00
7000
ENDCHAR
STARTCHAR ecircumflex
ENCODING 234
SWIDTH 413 0
DWIDTH 7 0
BBX 9 12 0 0
BITMAP
0200
0700
0B00
0F00
1D00
3A00
7280
6D80
F300
E600
FC00
7000
ENDCHAR
STARTCHAR edieresis
ENCODING 235
SWIDTH 413 0
DWIDTH 7 0
BBX 10 12 0 0
BITMAP
02C0
06C0
0000
0F00
1D00
3B00
7680
6D80
F100
E600
FC00
7800
ENDCHAR
STARTCHAR igrave
ENCODING 236
SWIDTH 263 0
DWIDTH 4 0
BBX 7 13 0 0
BITMAP
10
38
08
14
18
18
30
74
66
C8
D0
E0
C0
ENDCHAR
STARTCHAR iacute
ENCODING 237
SWIDTH 263 0
DWIDTH 4 0
BBX 8 13 0 0
BITMAP
03
07
0C
10
18
18
30
74
66
C8
D0
E0
C0
ENDCHAR
STARTCHAR icircumflex
ENCODING 238
SWIDTH 263 0
DWIDTH 4 0
BBX 7 12 0 0
BITMAP
08
1C
14
18
18
30
74
66
C8
D0
E0
C0
ENDCHAR
STARTCHAR idieresis
ENCODING 239
SWIDTH 263 0
DWIDTH 4 0
BBX 8 12 0 0
BITMAP
1B
1B
10
18
18
30
74
66
C8
D0
E0
C0
ENDCHAR
STARTCHAR eth
ENCODING 240
SWIDTH 601 0
DWIDTH 10 0
BBX 13 19 0 0
BITMAP
0070
01F8
0398
0308
0718
0618
0E18
0E38
0E30
07F0
03E0
00C0
01C0
0380
0F00
1E00
7800
F000
4000
ENDCHAR
STARTCHAR ntilde
ENCODING 241
SWIDTH 511 0
DWIDTH 8 0
BBX 11 12 0 0
BITMAP
0080
0780
0900
1B80
1F80
3B00
3700
6660
6EC0
CD80
CF00
8E00
ENDCHAR
STARTCHAR ograve
ENCODING 242
SWIDTH 471 0
DWIDTH 8 0
BBX 8 13 0 0
BITMAP
0C
0C
06
02
0F
1B
33
61
63
62
E6
7C
78
ENDCHAR
STARTCHAR oacute
ENCODING 243
SWIDTH 471 0
DWIDTH 8 0
BBX 9 13 0 0
BITMAP
0080
0180
0300
0200
0F00
1B00
3300
6100
6300
6200
E600
7C00
7800
ENDCHAR
STARTCHAR ocircumflex
ENCODING 244
SWIDTH 471 0
DWIDTH 8 0
BBX 9 12 0 0
BITMAP
0100
0780
0280
0F00
1B00
3300
6100
6300
6200
E600
7C00
7800
ENDCHAR
STARTCHAR otilde
ENCODING 245
SWIDTH 471 0
DWIDTH 8 0
BBX 9 12 0 0
BITMAP
0080
0780
0300
0F00
1B00
3300
6100
6300
6200
E600
7C00
7800
ENDCHAR
STARTCHAR odieresis
ENCODING 246
SWIDTH 471 0
DWIDTH 8 0
BBX 10 12 0 0
BITMAP
02C0
07C0
0200
0F00
1B00
3300
6100
6300
6200
E600
7C00
7800
ENDCHAR
STARTCHAR oslash
ENCODING 248
SWIDTH 471 0
DWIDTH 8 0
BBX 8 14 0 -3
BITMAP
03
03
07
1F
3F
3D
69
7B
FE
7C
78
20
60
60
ENDCHAR
STARTCHAR ugrave
ENCODING 249
SWIDTH 537 0
DWIDTH 9 0
BBX 11 13 0 0
BITMAP
0400
0600
0300
1100
1980
3980
3380
7320
6640
EEC0
DD80
FF00
EE00
ENDCHAR
STARTCHAR uacute
ENCODING 250
SWIDTH 537 0
DWIDTH 9 0
BBX 11 13 0 0
BITMAP
0300
0700
0C00
1100
1980
3980
3380
7320
6640
EEC0
DD80
FF00
EE00
ENDCHAR
STARTCHAR ucircumflex
ENCODING 251
SWIDTH 537 0
DWIDTH 9 0
BBX 11 12 0 0
BITMAP
0200
0700
1900
1980
3980
3380
7320
6640
EEC0
DD80
FF00
EE00
ENDCHAR
STARTCHAR udieresis
ENCODING 252
SWIDTH 537 0
DWIDTH 9 0
BBX 11 12 0 0
BITMAP
0D80
0D80
0000
1980
3980
3380
7320
6660
6E40
DC80
FF00
EE00
ENDCHAR
STARTCHAR yacute
ENCODING 253
SWIDTH 444 0
DWIDTH 7 0
BBX 15 20 -6 -7
BITMAP
0006
000E
0018
0044
0066
00E6
00CE
01CC
0198
03B8
0370
03F0
03E0
0060
1FC0
7FE0
61F0
8370
8600
7800
ENDCHAR
STARTCHAR ydieresis
ENCODING 255
SWIDTH 444 0
DWIDTH 7 0
BBX 16 19 -6 -7
BITMAP
001B
001E
0000
0066
0066
00EE
00CC
019C
0198
0338
0370
03F0
0160
1FC0
7FC0
61E0
8370
8600
7C00
ENDCHAR
STARTCHAR Amacron
ENCODING 256
SWIDTH 1301 0
DWIDTH 21 0
BBX 30 22 0 -2
BITMAP
0000007C
00000078
00000020
00000030
00000070
000000E0
000001C0
000007C0
00000F80
00001F00
00003B00
07807600
1F87EC00
30DF9C00
60531800
400E3000
801C7000
80386000
80E0E000
C1C0C000
7F00C000
3C004000
ENDCHAR
STARTCHAR amacron
ENCODING 257
SWIDTH 574 0
DWIDTH 9 0
BBX 12 12 0 -1
BITMAP
0F00
0F00
0700
0F80
1D80
3900
7330
6320
E640
CE80
F700
4600
ENDCHAR
STARTCHAR Abreve
ENCODING 258
SWIDTH 1301 0
DWIDTH 21 0
BBX 30 22 0 -2
BITMAP
0000001C
00000038
00000020
00000030
00000070
000000E0
000001C0
000007C0
00000F80
00001F00
03003B00
0F807600
38C7FC00
60DF9C00
40131800
C00E3000
801C7000
80386000
80E0E000
C1C0C000
7F00C000
3C004000
ENDCHAR
STARTCHAR abreve
ENCODING 259
SWIDTH 574 0
DWIDTH 9 0
BBX 12 13 0 -1
BITMAP
0200
0380
0300
0700
0F80
1D80
3900
7330
6320
E640
CE80
F700
4600
ENDCHAR
STARTCHAR Aogonek
ENCODING 260
SWIDTH 1301 0
DWIDTH 21 0
BBX 28 21 0 -4
BITMAP
00000020
00000070
000000E0
000001E0
000003C0
000007C0
00000F80
00001B00
07803600
1F806E00
30DFFC00
605B9800
40073800
800C3000
80386000
80706000
C1C0C000
7F80C000
3E00C000
00008000
00008000
ENDCHAR
STARTCHAR aogonek
ENCODING 261
SWIDTH 574 0
DWIDTH 9 0
BBX 12 11 0 -2
BITMAP
0700
1F80
3980
3320
6330
E760
CEC0
FF80
E700
0400
0400
ENDCHAR
STARTCHAR Cacute
ENCODING 262
SWIDTH 639 0
DWIDTH 10 0
BBX 16 23 1 -3
BITMAP
0003
0007
000C
0000
003E
0076
01C6
038C
0718
0638
0E00
1C00
1800
3800
7000
7020
E060
E040
E080
C100
E600
FC00
7800
ENDCHAR
STARTCHAR cacute
ENCODING 263
SWIDTH 413 0
DWIDTH 7 0
BBX 10 13 0 0
BITMAP
00C0
01C0
0300
0300
0F00
1D00
3800
7080
6180
E300
E600
FC00
7000
ENDCHAR
STARTCHAR Ccircumflex
ENCODING 264
SWIDTH 639 0
DWIDTH 10 0
BBX 15 22 1 -3
BITMAP
0004
001E
0014
003E
0076
01C6
038C
0718
0638
0E00
1C00
1800
3800
7000
7020
E060
E040
E080
C100
E600
FC00
7800
ENDCHAR
STARTCHAR ccircumflex
ENCODING 265
SWIDTH 413 0
DWIDTH 7 0
BBX 9 12 0 0
BITMAP
0100
0380
0780
0F00
1D00
3800
7080
6180
E300
E600
FC00
7000
ENDCHAR
STARTCHAR Cdotaccent
ENCODING 266
SWIDTH 639 0
DWIDTH 10 0
BBX 15 22 1 -3
BITMAP
0006
0006
001E
0076
00E6
01C4
038C
0718
0E30
0C00
1C00
3800
3000
7000
7020
E060
E040
E080
C100
E600
FC00
7800
ENDCHAR
STARTCHAR cdotaccent
ENCODING 267
SWIDTH 413 0
DWIDTH 7 0
BBX 9 12 0 0
BITMAP
0180
0100
0300
0F00
1D00
3800
7080
6180
E300
E600
FC00
7000
ENDCHAR
STARTCHAR Ccaron
ENCODING 268
SWIDTH 639 0
DWIDTH 10 0
BBX 16 23 1 -3
BITMAP
0008
0009
000E
0004
003E
0076
01C6
038C
0718
0638
0E00
1C00
1800
3800
7000
7020
E060
E040
E080
C100
E600
FC00
7800
ENDCHAR
STARTCHAR ccaron
ENCODING 269
SWIDTH 413 0
DWIDTH 7 0
BBX 10 12 0 0
BITMAP
0240
0380
0300
0F00
1D00
3800
7080
6180
E300
E600
FC00
7000
ENDCHAR
STARTCHAR Dcaron
ENCODING 270
SWIDTH 902 0
DWIDTH 14 0
BBX 17 21 0 -2
BITMAP
000900
000600
003F00
00E380
03E180
076180
0EE180
1CC180
39C180
338300
730300
670600
460E00
4E0C00
0C1800
183000
D86000
D1C000
C38000
7E0000
380000
ENDCHAR
STARTCHAR dcaron
ENCODING 271
SWIDTH 574 0
DWIDTH 9 0
BBX 15 16 0 -1
BITMAP
0006
001E
001C
0038
0030
0070
0760
0FC0
1DC0
3980
7320
6330
E640
CE80
F780
6600
ENDCHAR
STARTCHAR Dcroat
ENCODING 272
SWIDTH 902 0
DWIDTH 14 0
BBX 17 19 0 -2
BITMAP
003F00
00E380
01E180
076180
0EE180
1CC180
19C180
398300
778300
678600
6E0E00
4E0C00
8C1800
1C3000
D86000
D9C000
D38000
7E0000
380000
ENDCHAR
STARTCHAR dcroat
ENCODING 273
SWIDTH 574 0
DWIDTH 9 0
BBX 13 15 0 -1
BITMAP
0018
0018
0038
01F8
01F0
0760
0FC0
1DC0
3980
7330
6320
E640
CE80
F700
4600
ENDCHAR
STARTCHAR Emacron
ENCODING 274
SWIDTH 812 0
DWIDTH 13 0
BBX 20 21 0 -2
BITMAP
001E00
001E00
0001F0
007FF0
03FFE0
0FF000
1E7000
386000
70E000
61C600
61FE00
67FC00
3F0000
3E0000
660000
4C0000
CC0000
CC0000
187000
1FF000
0FC000
ENDCHAR
STARTCHAR emacron
ENCODING 275
SWIDTH 413 0
DWIDTH 7 0
BBX 9 11 0 0
BITMAP
0780
0780
0700
1D00
3B00
7680
6D80
F900
E200
EC00
7800
ENDCHAR
STARTCHAR Ebreve
ENCODING 276
SWIDTH 812 0
DWIDTH 13 0
BBX 20 21 0 -2
BITMAP
000A00
000C00
0001F0
007FF0
03FFE0
0FF000
1E7000
386000
70E000
61C600
61FE00
67FC00
3F0000
3E0000
660000
4C0000
CC0000
CC0000
187000
1FF000
0FC000
ENDCHAR
STARTCHAR ebreve
ENCODING 277
SWIDTH 413 0
DWIDTH 7 0
BBX 9 12 0 0
BITMAP
0280
0380
0300
0F00
1D00
3A00
7280
6D80
F300
E600
FC00
7000
ENDCHAR
STARTCHAR Edotaccent
ENCODING 278
SWIDTH 812 0
DWIDTH 13 0
BBX 20 21 0 -2
BITMAP
000C00
000C10
0007F0
00FFF0
07FFE0
0FE000
3C7000
38E000
60E000
61CE00
61FE00
67F000
1F0000
360000
6E0000
4C0000
CC0000
DC0000
187000
0FF000
07C000
ENDCHAR
STARTCHAR edotaccent
ENCODING 279
SWIDTH 413 0
DWIDTH 7 0
BBX 9 12 0 0
BITMAP
0180
0100
0300
0F00
1D00
3A00
7280
6D80
F300
E600
FC00
7000
ENDCHAR
STARTCHAR Eogonek
ENCODING 280
SWIDTH 812 0
DWIDTH 13 0
BBX 20 21 0 -4
BITMAP
000030
001FF0
01FFF0
07FC00
1F7000
387000
70E000
61C600
61FE00
67FC00
7F0000
3E0000
660000
4C0000
CC0000
CC0000
187000
1FF000
0FC000
060000
060000
ENDCHAR
STARTCHAR eogonek
ENCODING 281
SWIDTH 413 0
DWIDTH 7 0
BBX 9 12 0 -3
BITMAP
0300
0D00
1B00
3200
6E80
7900
F300
E600
FC00
7000
6000
6000
ENDCHAR
STARTCHAR Ecaron
ENCODING 282
SWIDTH 812 0
DWIDTH 13 0
BBX 20 22 0 -2
BITMAP
001000
001200
000E00
0009F0
007FF0
03FFE0
0FF000
1E7000
386000
70E000
61C600
61FE00
67FC00
3F0000
3E0000
660000
4C0000
CC0000
CC0000
187000
1FF000
0FC000
ENDCHAR
STARTCHAR ecaron
ENCODING 283
SWIDTH 413 0
DWIDTH 7 0
BBX 10 12 0 0
BITMAP
0240
0380
0100
0700
1D00
3B00
7680
6D80
F100
E600
FC00
7800
ENDCHAR
STARTCHAR Gcircumflex
ENCODING 284
SWIDTH 962 0
DWIDTH 15 0
BBX 21 27 -1 -7
BITMAP
000020
000070
000050
0003F0
000FF8
003E18
007818
00F018
01E030
03C070
0780E0
0700C0
0E00C0
0E01C0
1C0180
1C0380
180300
1BC700
1FCE00
3C3E00
7FEC00
CF9800
C03000
C07000
C1E000
7F8000
3E0000
ENDCHAR
STARTCHAR gcircumflex
ENCODING 285
SWIDTH 496 0
DWIDTH 8 0
BBX 14 18 -5 -7
BITMAP
000C
0014
0038
007C
00EC
01C8
039C
0318
0730
0670
07E0
02C0
3F80
7FC0
C3E0
86F0
8C00
F000
ENDCHAR
STARTCHAR Gbreve
ENCODING 286
SWIDTH 962 0
DWIDTH 15 0
BBX 21 27 -1 -7
BITMAP
000020
000050
000060
0001F0
000FF8
003E18
007818
00F018
01E030
03C070
0780E0
0700C0
0E00C0
0E01C0
1C0180
1C0380
180300
1BC700
1FCE00
3C3E00
7FEC00
CF9800
C03000
C07000
C1E000
7F8000
3E0000
ENDCHAR
STARTCHAR gbreve
ENCODING 287
SWIDTH 496 0
DWIDTH 8 0
BBX 14 19 -5 -7
BITMAP
0010
001C
0018
0038
007C
00EC
01C8
039C
0318
0730
0670
07E0
02C0
3F80
7FC0
C3E0
86F0
8C00
F000
ENDCHAR
STARTCHAR Gdotaccent
ENCODING 288
SWIDTH 962 0
DWIDTH 15 0
BBX 21 26 -1 -7
BITMAP
000030
000030
0001F0
000FF8
003E18
007818
00F018
01E030
03C070
0780E0
0700C0
0E00C0
0E01C0
1C0180
1C0380
180300
1BC700
1FCE00
3C3E00
7FEC00
CF9800
C03000
C07000
C1E000
7F8000
3E0000
ENDCHAR
STARTCHAR gdotaccent
ENCODING 289
SWIDTH 496 0
DWIDTH 8 0
BBX 14 19 -5 -7
BITMAP
000C
000C
0000
0038
007C
00EC
01C8
039C
0318
0730
0670
07E0
02C0
3F80
7FC0
C3E0
86F0
8C00
F000
ENDCHAR
STARTCHAR uni0122
ENCODING 290
SWIDTH 962 0
DWIDTH 15 0
BBX 21 28 -1 -11
BITMAP
0001F0
000FF8
003E18
007818
00E018
01C030
038070
0700E0
0600C0
0C01C0
0C0180
180380
1BC300
1FC700
180E00
1C3E00
3FFC00
4F9800
C03800
C07000
C0E000
E1C000
7F8000
3E0000
180000
180000
180000
300000
ENDCHAR
STARTCHAR uni0123
ENCODING 291
SWIDTH 496 0
DWIDTH 8 0
BBX 14 20 -5 -11
BITMAP
0038
007C
01EC
01C8
039C
0718
0730
0670
07E0
00C0
3F80
7FC0
C3E0
86F0
8C00
F000
6000
6000
2000
4000
ENDCHAR
STARTCHAR Hcircumflex
ENCODING 292
SWIDTH 1218 0
DWIDTH 19 0
BBX 25 21 0 -2
BITMAP
00000400
00000E00
0001D200
0007E180
000E2380
00186700
00306600
0060CE00
0060DC00
00C19800
00833800
03FF3000
0FFF6000
3C1FE000
7039E000
4070F000
80E1A000
81C18000
87830000
FE030000
7C020000
ENDCHAR
STARTCHAR hcircumflex
ENCODING 293
SWIDTH 511 0
DWIDTH 8 0
BBX 11 17 0 0
BITMAP
00C0
01C0
0240
0300
0300
0700
0600
0C00
1F80
1F80
3B00
3700
6660
6EC0
CD80
CF00
8E00
ENDCHAR
STARTCHAR Hbar
ENCODING 294
SWIDTH 1218 0
DWIDTH 19 0
BBX 25 19 0 -2
BITMAP
0001C000
0007E100
000E2180
00186380
00306700
0060EE00
0060CC00
00C1FF80
0083FF00
03FF3000
0FFF3000
3C1F6000
703FE000
4078F000
80F1B000
81C18000
87830000
FF030000
7C020000
ENDCHAR
STARTCHAR hbar
ENCODING 295
SWIDTH 511 0
DWIDTH 8 0
BBX 11 15 0 -1
BITMAP
0300
0300
0700
0F00
1F00
0D00
1F80
3F80
3B00
7640
6660
CC80
CD00
CE00
8C00
ENDCHAR
STARTCHAR Itilde
ENCODING 296
SWIDTH 615 0
DWIDTH 10 0
BBX 17 21 0 -3
BITMAP
000780
000900
000F00
007F00
01F600
03CE00
071C00
0E1800
1C3800
383000
707000
606000
E0C000
40C000
018000
018000
018000
030000
030000
03C000
018000
ENDCHAR
STARTCHAR itilde
ENCODING 297
SWIDTH 263 0
DWIDTH 4 0
BBX 8 12 0 0
BITMAP
03
1E
12
18
18
30
74
66
C8
D0
E0
C0
ENDCHAR
STARTCHAR Imacron
ENCODING 298
SWIDTH 615 0
DWIDTH 10 0
BBX 18 21 0 -3
BITMAP
0007C0
000780
000F00
007F00
01F600
03CE00
071C00
0E1800
1C3800
383000
707000
606000
E0C000
40C000
018000
018000
018000
030000
030000
03C000
018000
ENDCHAR
STARTCHAR imacron
ENCODING 299
SWIDTH 263 0
DWIDTH 4 0
BBX 7 11 0 0
BITMAP
1E
1E
18
18
30
74
66
C8
D0
E0
C0
ENDCHAR
STARTCHAR Iogonek
ENCODING 302
SWIDTH 615 0
DWIDTH 10 0
BBX 16 21 0 -5
BITMAP
000F
007F
01E6
038E
071C
0E18
1C38
3830
7070
6060
E0C0
40C0
0180
0180
0180
0300
0300
03C0
01C0
0100
0100
ENDCHAR
STARTCHAR iogonek
ENCODING 303
SWIDTH 263 0
DWIDTH 4 0
BBX 9 16 -1 -2
BITMAP
0100
0380
0300
0300
0A00
0C00
1C00
1800
3A00
3200
6400
6800
7000
6000
8000
C000
ENDCHAR
STARTCHAR Idotaccent
ENCODING 304
SWIDTH 615 0
DWIDTH 10 0
BBX 16 21 0 -3
BITMAP
0003
0003
000F
007F
01E6
038E
071C
0E18
1C38
3830
7070
6060
E0C0
40C0
0180
0180
0180
0300
0300
03C0
0180
ENDCHAR
STARTCHAR dotlessi
ENCODING 305
SWIDTH 263 0
DWIDTH 4 0
BBX 7 10 0 0
BITMAP
10
18
18
30
74
66
C8
D0
E0
C0
ENDCHAR
STARTCHAR IJ
ENCODING 306
SWIDTH 1622 0
DWIDTH 26 0
BBX 31 25 0 -8
BITMAP
0000000E
003F003E
00FF00F6
01CE01CE
078C078C
0E1C0F1C
1C181E18
38381C38
30703830
70607070
60E02060
E0C000E0
01C3E1C0
0187E1C0
018C2380
03184700
03300700
03200E00
03C01C00
01C03800
00407000
0040E000
0061C000
007F8000
003E0000
ENDCHAR
STARTCHAR ij
ENCODING 307
SWIDTH 444 0
DWIDTH 7 0
BBX 17 21 -6 -7
BITMAP
000880
001D80
001980
001900
005500
006600
006600
00CE00
01CC00
019800
033800
037000
03B000
036000
006000
1FC000
7FE000
61F000
836000
860000
780000
ENDCHAR
STARTCHAR Jcircumflex
ENCODING 308
SWIDTH 1007 0
DWIDTH 16 0
BBX 23 28 -1 -8
BITMAP
000004
00001E
00000E
00003C
0000FC
0003CC
00079C
000E18
001C38
003830
007070
007060
0060E0
0040C0
0001C0
07C380
0FC300
184700
308E00
600C00
401C00
C03800
807000
80E000
C1C000
C38000
7F0000
3C0000
ENDCHAR
STARTCHAR jcircumflex
ENCODING 309
SWIDTH 180 0
DWIDTH 3 0
BBX 16 19 -10 -7
BITMAP
0002
0007
0005
0004
0006
000E
000C
001C
0018
0030
0030
0060
0060
1FC0
7FC0
C1E0
8370
8E00
7800
ENDCHAR
STARTCHAR uni0136
ENCODING 310
SWIDTH 857 0
DWIDTH 14 0
BBX 22 24 -1 -7
BITMAP
000008
00201C
003038
007078
0070F0
0061E0
00E3C0
00C780
01CE00
039C00
037800
07E000
07C000
0F0000
1E0000
3B0000
738000
61C000
41F000
C0FF00
0C3C00
0C0000
080000
180000
ENDCHAR
STARTCHAR uni0137
ENCODING 311
SWIDTH 483 0
DWIDTH 8 0
BBX 10 19 0 -4
BITMAP
0300
0300
0700
0600
0E00
0D00
1F80
1F80
3F00
7640
66C0
E180
F300
FE00
9C00
6000
6000
6000
4000
ENDCHAR
STARTCHAR kgreenlandic
ENCODING 312
SWIDTH 483 0
DWIDTH 8 0
BBX 10 14 0 0
BITMAP
0200
0700
0600
0E00
0D00
1F80
1F80
3F00
7640
66C0
E180
F300
FE00
9C00
ENDCHAR
STARTCHAR Lacute
ENCODING 313
SWIDTH 617 0
DWIDTH 10 0
BBX 16 23 0 -3
BITMAP
0002
0006
000C
0010
0000
0018
0018
0038
0030
0070
0060
00C0
01C0
0180
0300
0700
0600
0C00
1800
3000
6001
FFFE
03FC
ENDCHAR
STARTCHAR lacute
ENCODING 314
SWIDTH 269 0
DWIDTH 4 0
BBX 10 18 0 0
BITMAP
0040
00C0
0180
0100
0300
0300
0600
0E00
0C00
1C00
1800
3000
7400
6600
E800
D800
F000
E000
ENDCHAR
STARTCHAR uni013B
ENCODING 315
SWIDTH 617 0
DWIDTH 10 0
BBX 16 22 0 -7
BITMAP
0018
0018
0038
0030
0070
0060
00C0
01C0
0180
0300
0700
0600
0C00
1800
3000
6001
FFFE
03FC
0C00
0C00
0400
0800
ENDCHAR
STARTCHAR uni013C
ENCODING 316
SWIDTH 269 0
DWIDTH 4 0
BBX 9 19 -1 -4
BITMAP
0100
0180
0180
0380
0300
0600
0E00
0C00
1C00
1800
3300
3600
6400
7800
7000
6000
6000
6000
C000
ENDCHAR
STARTCHAR Lcaron
ENCODING 317
SWIDTH 617 0
DWIDTH 10 0
BBX 16 19 0 -3
BITMAP
0006
001E
001E
003C
0030
0070
0060
00C0
01C0
0180
0300
0700
0600
0C00
1800
3000
6001
FFFE
03FC
ENDCHAR
STARTCHAR lcaron
ENCODING 318
SWIDTH 270 0
DWIDTH 4 0
BBX 10 16 0 0
BITMAP
00C0
01C0
0380
0300
0600
0E00
0C00
1C00
1800
3000
7400
6600
E800
D800
F000
E000
ENDCHAR
STARTCHAR Ldot
ENCODING 319
SWIDTH 617 0
DWIDTH 10 0
BBX 16 18 0 -3
BITMAP
0018
0018
0038
0030
0070
0060
00C0
01C0
0180
03C0
07C0
0600
0C00
1800
3000
6001
FFFE
03FC
ENDCHAR
STARTCHAR ldot
ENCODING 320
SWIDTH 270 0
DWIDTH 4 0
BBX 8 14 0 0
BITMAP
03
03
07
06
0C
1C
18
3C
3C
66
6C
D8
F0
E0
ENDCHAR
STARTCHAR Lslash
ENCODING 321
SWIDTH 617 0
DWIDTH 10 0
BBX 16 18 0 -3
BITMAP
0018
0018
0038
0030
0070
0060
00C0
01C0
0180
0300
0780
1F00
1F00
1800
3000
6001
FFFE
03FC
ENDCHAR
STARTCHAR lslash
ENCODING 322
SWIDTH 269 0
DWIDTH 4 0
BBX 8 15 0 0
BITMAP
01
03
03
06
0E
1E
3E
7C
30
74
66
E8
D8
F0
E0
ENDCHAR
STARTCHAR Nacute
ENCODING 323
SWIDTH 820 0
DWIDTH 13 0
BBX 19 22 1 -2
BITMAP
000200
000600
000C00
000040
00C1C0
03E3E0
06CFC0
0DDF80
19B700
33E600
73CE00
E78C00
C71C00
4E3800
1C3000
1C7000
386000
306000
70E000
60C000
60C000
407800
ENDCHAR
STARTCHAR nacute
ENCODING 324
SWIDTH 511 0
DWIDTH 8 0
BBX 11 13 0 0
BITMAP
0100
0300
0600
0000
1B80
1F80
3B00
3700
6660
6EC0
CD80
CF00
8E00
ENDCHAR
STARTCHAR uni0145
ENCODING 325
SWIDTH 820 0
DWIDTH 13 0
BBX 19 23 1 -6
BITMAP
000040
00C1C0
03E3E0
06CFC0
0DDF80
19B700
33E600
73CE00
E78C00
C71C00
4E3800
1C3000
1C7000
386000
306000
70E000
60C000
60C000
407800
0C0000
0C0000
040000
080000
ENDCHAR
STARTCHAR uni0146
ENCODING 326
SWIDTH 511 0
DWIDTH 8 0
BBX 11 13 0 -4
BITMAP
1B80
1F80
3B00
3700
6660
6EC0
CD80
CF00
8E00
6000
6000
6000
4000
ENDCHAR
STARTCHAR Ncaron
ENCODING 327
SWIDTH 820 0
DWIDTH 13 0
BBX 19 22 1 -2
BITMAP
000900
000E00
000400
000040
00C1C0
03E3E0
06CFC0
0DDF80
19B700
33E600
73CE00
E78C00
C71C00
4E3800
1C3000
1C7000
386000
306000
70E000
60C000
60C000
407800
ENDCHAR
STARTCHAR ncaron
ENCODING 328
SWIDTH 511 0
DWIDTH 8 0
BBX 11 12 0 0
BITMAP
0500
0700
0200
1B80
1F80
3B00
3700
6660
6EC0
CD80
CF00
8E00
ENDCHAR
STARTCHAR napostrophe
ENCODING 329
SWIDTH 511 0
DWIDTH 8 0
BBX 11 12 0 0
BITMAP
1800
1800
1000
7B80
1F80
3B00
3700
6660
6EC0
CD80
CF00
8E00
ENDCHAR
STARTCHAR Omacron
ENCODING 332
SWIDTH 601 0
DWIDTH 10 0
BBX 16 21 0 -2
BITMAP
001E
001E
001E
007F
01C7
0303
0603
0C03
0803
1E07
1E07
380E
300E
701C
7038
F038
C070
C0E0
C3C0
7F80
3E00
ENDCHAR
STARTCHAR omacron
ENCODING 333
SWIDTH 471 0
DWIDTH 8 0
BBX 9 11 0 0
BITMAP
0780
0780
0F00
1B00
3300
6100
6300
6200
E600
7C00
7800
ENDCHAR
STARTCHAR Obreve
ENCODING 334
SWIDTH 601 0
DWIDTH 10 0
BBX 16 22 0 -2
BITMAP
0008
000E
000C
001E
007F
01C7
0303
0603
0C03
0803
1E07
1E07
380E
300E
701C
7038
F038
C070
C0E0
C3C0
7F80
3E00
ENDCHAR
STARTCHAR obreve
ENCODING 335
SWIDTH 471 0
DWIDTH 8 0
BBX 9 12 0 0
BITMAP
0280
0380
0300
0F00
1B00
3300
6100
6300
6200
E600
7C00
7800
ENDCHAR
STARTCHAR Ohungarumlaut
ENCODING 336
SWIDTH 601 0
DWIDTH 10 0
BBX 17 23 0 -2
BITMAP
000480
000580
000F80
001600
001E00
007F00
01C700
030300
060300
0C0300
080300
1E0700
1E0700
380E00
300E00
701C00
703800
F03800
C07000
C0E000
C3C000
7F8000
3E0000
ENDCHAR
STARTCHAR ohungarumlaut
ENCODING 337
SWIDTH 471 0
DWIDTH 8 0
BBX 11 13 0 0
BITMAP
0160
03E0
0780
0200
0F00
1B00
3300
6100
6300
6200
E600
7C00
7800
ENDCHAR
STARTCHAR OE
ENCODING 338
SWIDTH 1414 0
DWIDTH 23 0
BBX 30 19 0 -2
BITMAP
001E003C
007F0FFC
01C7FFF8
0303FE00
06079800
0C0F3800
081B3000
1E377180
1E36FF80
383FFF00
301FC000
701F8000
703B0000
F03B0000
C0720000
C0E60400
C3E63C00
7F87F800
3E07F000
ENDCHAR
STARTCHAR oe
ENCODING 339
SWIDTH 884 0
DWIDTH 14 0
BBX 17 10 0 0
BITMAP
020200
0F0F00
1B3D00
337200
617580
63E900
62F200
E6C400
7CF800
78F000
ENDCHAR
STARTCHAR Racute
ENCODING 340
SWIDTH 940 0
DWIDTH 15 0
BBX 18 24 0 -4
BITMAP
000100
000300
000600
003F00
00FF80
03F9C0
073CC0
0E78C0
1CF0C0
38E0C0
31E180
73C100
638300
D78600
D71800
5E7000
0FC000
1B0000
190000
118000
30C000
10E000
007800
003800
ENDCHAR
STARTCHAR racute
ENCODING 341
SWIDTH 390 0
DWIDTH 6 0
BBX 8 15 1 -1
BITMAP
01
03
06
08
10
32
3E
3E
5C
BB
72
64
F8
F0
40
ENDCHAR
STARTCHAR uni0156
ENCODING 342
SWIDTH 940 0
DWIDTH 15 0
BBX 18 24 0 -7
BITMAP
003F00
00FF80
03F9C0
073CC0
0E78C0
1CF0C0
38E0C0
31E180
73C100
638300
D78600
D71800
5E7000
0FC000
1B0000
190000
118000
30C000
10E000
007800
033800
030000
020000
060000
ENDCHAR
STARTCHAR uni0157
ENCODING 343
SWIDTH 390 0
DWIDTH 6 0
BBX 8 15 1 -4
BITMAP
10
18
32
3E
5C
DA
3B
76
6C
F8
E0
C0
C0
C0
80
ENDCHAR
STARTCHAR Rcaron
ENCODING 344
SWIDTH 940 0
DWIDTH 15 0
BBX 18 23 0 -4
BITMAP
000480
000380
003F00
00FF80
03F9C0
073CC0
0E78C0
1CF0C0
38E0C0
31E180
73C100
638300
D78600
D71800
5E7000
0FC000
1B0000
190000
118000
30C000
10E000
007800
003800
ENDCHAR
STARTCHAR rcaron
ENCODING 345
SWIDTH 390 0
DWIDTH 6 0
BBX 8 14 1 -1
BITMAP
09
0F
04
10
32
3E
3E
5C
BB
72
64
F8
F0
40
ENDCHAR
STARTCHAR Sacute
ENCODING 346
SWIDTH 797 0
DWIDTH 13 0
BBX 19 23 0 -2
BITMAP
000040
000040
0001C0
000100
0007C0
001EE0
003060
00E0C0
00C1C0
018180
01C000
01C000
01E000
00E000
007000
307000
783000
E07000
C07000
C0E000
E1C000
7F8000
3E0000
ENDCHAR
STARTCHAR sacute
ENCODING 347
SWIDTH 309 0
DWIDTH 5 0
BBX 10 14 -1 0
BITMAP
00C0
01C0
0300
0200
0300
0700
0E00
1C00
1C00
2C00
6C00
EC00
D800
7800
ENDCHAR
STARTCHAR Scircumflex
ENCODING 348
SWIDTH 797 0
DWIDTH 13 0
BBX 19 22 0 -2
BITMAP
000080
0001C0
000140
0007C0
001EE0
003060
00E0C0
00C1C0
018180
01C000
01C000
01E000
00E000
007000
307000
783000
E07000
C07000
C0E000
E1C000
7F8000
3E0000
ENDCHAR
STARTCHAR scircumflex
ENCODING 349
SWIDTH 309 0
DWIDTH 5 0
BBX 9 13 -1 0
BITMAP
0100
0380
0680
0300
0700
0E00
1C00
1C00
2C00
6C00
EC00
D800
7800
ENDCHAR
STARTCHAR Scedilla
ENCODING 350
SWIDTH 797 0
DWIDTH 13 0
BBX 19 22 0 -5
BITMAP
0003C0
001FE0
003860
006040
00C1C0
01C180
018000
01C000
01C000
01E000
00E000
007000
307000
783000
E07000
C06000
C0E000
E1C000
7F0000
180000
1C0000
180000
ENDCHAR
STARTCHAR scedilla
ENCODING 351
SWIDTH 309 0
DWIDTH 5 0
BBX 8 14 -1 -3
BITMAP
03
07
07
0E
1C
1C
2C
6C
EC
D8
F8
60
60
E0
ENDCHAR
STARTCHAR Scaron
ENCODING 352
SWIDTH 797 0
DWIDTH 13 0
BBX 19 22 0 -2
BITMAP
000140
0001E0
000080
0003C0
001FE0
003860
006040
00C1C0
01C180
018000
01C000
01C000
00E000
00F000
307000
787000
E07000
C07000
C0E000
E1C000
7F8000
3E0000
ENDCHAR
STARTCHAR scaron
ENCODING 353
SWIDTH 309 0
DWIDTH 5 0
BBX 10 13 -1 0
BITMAP
0280
03C0
0100
0300
0700
0E00
1C00
1C00
2C00
6C00
EC00
D800
7800
ENDCHAR
STARTCHAR uni0162
ENCODING 354
SWIDTH 511 0
DWIDTH 8 0
BBX 22 23 1 -6
BITMAP
00FE00
07FFFC
1E23F8
387000
307000
60E000
61C000
C18000
430000
070000
060000
0C0000
1C0000
180000
380000
300000
300000
600000
200000
400000
E00000
400000
C00000
ENDCHAR
STARTCHAR uni0163
ENCODING 355
SWIDTH 269 0
DWIDTH 4 0
BBX 11 18 0 -4
BITMAP
0300
0300
07E0
07C0
1E00
2C00
1800
3800
3000
7600
6400
E800
D000
F000
E000
6000
6000
4000
ENDCHAR
STARTCHAR Tcaron
ENCODING 356
SWIDTH 511 0
DWIDTH 8 0
BBX 22 22 1 -2
BITMAP
000A00
000F00
000400
00FE00
07FFFC
1E23F8
387000
307000
60E000
61C000
C18000
430000
070000
060000
0C0000
1C0000
180000
380000
300000
300000
600000
200000
ENDCHAR
STARTCHAR tcaron
ENCODING 357
SWIDTH 278 0
DWIDTH 4 0
BBX 11 16 0 0
BITMAP
0060
0060
0340
0380
07E0
0FC0
3E00
5C00
1800
3800
7000
6600
6C00
D800
F000
E000
ENDCHAR
STARTCHAR Tbar
ENCODING 358
SWIDTH 511 0
DWIDTH 8 0
BBX 22 18 1 -1
BITMAP
00FE00
07FFFC
1E33F8
387000
30E000
61C000
63C000
C3C000
470000
060000
0E0000
0C0000
180000
180000
300000
300000
200000
600000
ENDCHAR
STARTCHAR tbar
ENCODING 359
SWIDTH 269 0
DWIDTH 4 0
BBX 11 14 0 0
BITMAP
0300
0300
07E0
0FC0
3E00
3C00
3C00
7C00
3000
6600
6400
C800
F000
E000
ENDCHAR
STARTCHAR Utilde
ENCODING 360
SWIDTH 963 0
DWIDTH 15 0
BBX 20 21 1 -3
BITMAP
0003E0
000040
003800
01FC30
07EC30
1F1870
3C38E0
7870C0
7061C0
E0E180
C1C300
C18700
038600
070C00
061C00
0E3800
0C7800
0CF000
0FB000
063000
001800
ENDCHAR
STARTCHAR utilde
ENCODING 361
SWIDTH 537 0
DWIDTH 9 0
BBX 11 12 0 0
BITMAP
0080
0F80
1100
1980
3980
3380
7320
6640
EEC0
DD80
FF00
EE00
ENDCHAR
STARTCHAR Umacron
ENCODING 362
SWIDTH 963 0
DWIDTH 15 0
BBX 20 21 1 -3
BITMAP
0001E0
0001E0
003800
01FC30
07EC30
1F1870
3C38E0
7870C0
7061C0
E0E180
C1C300
C18700
038600
070C00
061C00
0E3800
0C7800
0CF000
0FB000
063000
001800
ENDCHAR
STARTCHAR umacron
ENCODING 363
SWIDTH 537 0
DWIDTH 9 0
BBX 11 11 0 0
BITMAP
0780
0780
1980
3980
3380
7320
6660
6E40
DC80
FF00
EE00
ENDCHAR
STARTCHAR Ubreve
ENCODING 364
SWIDTH 963 0
DWIDTH 15 0
BBX 20 21 1 -3
BITMAP
0000A0
0000E0
003880
01FC30
07EC30
1F1870
3C38E0
7870C0
7061C0
E0E180
C1C300
C18700
038600
070C00
061C00
0E3800
0C7800
0CF000
0FB000
063000
001800
ENDCHAR
STARTCHAR ubreve
ENCODING 365
SWIDTH 537 0
DWIDTH 9 0
BBX 11 12 0 0
BITMAP
0300
0580
1300
1980
3980
3380
7320
6640
EEC0
DD80
FF00
EE00
ENDCHAR
STARTCHAR Uring
ENCODING 366
SWIDTH 963 0
DWIDTH 15 0
BBX 20 22 1 -3
BITMAP
000060
0000E0
0001C0
0039C0
01FC30
07EC30
1F1870
3C38E0
7870C0
7061C0
E0E180
C1C300
C18700
038600
070C00
061C00
0E3800
0C7800
0CF000
0FB000
063000
001800
ENDCHAR
STARTCHAR uring
ENCODING 367
SWIDTH 537 0
DWIDTH 9 0
BBX 11 13 0 0
BITMAP
0180
0280
0380
1300
1980
3980
3380
7320
6640
EEC0
DD80
FF00
EE00
ENDCHAR
STARTCHAR Uhungarumlaut
ENCODING 368
SWIDTH 963 0
DWIDTH 15 0
BBX 21 22 1 -3
BITMAP
000058
0000F8
0001F0
003A40
01FC30
07EC30
1F1870
3C38E0
7870C0
7061C0
E0E180
C1C300
C18700
038600
070C00
061C00
0E3800
0C7800
0CF000
0FB000
063000
001800
ENDCHAR
STARTCHAR uhungarumlaut
ENCODING 369
SWIDTH 537 0
DWIDTH 9 0
BBX 11 13 0 0
BITMAP
0160
03E0
0780
1900
1980
3980
3380
7320
6640
EEC0
DD80
FF00
EE00
ENDCHAR
STARTCHAR Uogonek
ENCODING 370
SWIDTH 963 0
DWIDTH 15 0
BBX 20 21 1 -5
BITMAP
007820
03FC30
07CC70
1E1860
3C38E0
7070C0
6061C0
E0E380
C1C300
C18700
038600
070E00
061C00
0E3800
0C7800
0CD000
0FB000
0E3000
001800
002000
002000
ENDCHAR
STARTCHAR uogonek
ENCODING 371
SWIDTH 537 0
DWIDTH 9 0
BBX 11 12 0 -2
BITMAP
1100
1980
3980
3380
7320
6660
6EC0
DC80
FF00
EE00
0800
0C00
ENDCHAR
STARTCHAR Wcircumflex
ENCODING 372
SWIDTH 1308 0
DWIDTH 21 0
BBX 28 21 1 -3
BITMAP
00000800
00001C00
00182410
01FC0030
07EC2030
0F1C3060
1C3870C0
3830E1C0
7070C180
E0E1C300
C1C38600
C1C30C00
03871800
030E3000
071C6000
0E3CC000
0C798000
0CF30000
0DFE0000
0F780000
04700000
ENDCHAR
STARTCHAR wcircumflex
ENCODING 373
SWIDTH 670 0
DWIDTH 11 0
BBX 13 12 0 0
BITMAP
0080
01C0
0140
1988
1988
3B98
3330
6760
6EC0
CF80
FF00
EE00
ENDCHAR
STARTCHAR Ycircumflex
ENCODING 374
SWIDTH 917 0
DWIDTH 15 0
BBX 23 26 -2 -7
BITMAP
000018
000038
000FC8
007F86
00F98E
03C30C
07871C
0E0E18
0C0C38
1C1C30
183870
0830E0
0070C0
00E1C0
00C380
01C780
07CF00
19BE00
31EE00
601C00
403800
C07000
C0E000
E1C000
7F8000
3E0000
ENDCHAR
STARTCHAR ycircumflex
ENCODING 375
SWIDTH 444 0
DWIDTH 7 0
BBX 15 19 -6 -7
BITMAP
000C
001C
0064
0066
00E6
00CE
01CC
0198
03B8
0370
03F0
03E0
0060
1FC0
7FE0
61F0
8370
8600
7800
ENDCHAR
STARTCHAR Ydieresis
ENCODING 376
SWIDTH 917 0
DWIDTH 15 0
BBX 23 27 -2 -7
BITMAP
000034
00003E
000000
000F80
007F86
00F98E
03C30C
07871C
0E0E18
0C0C38
1C1C30
183870
0830E0
0070C0
00E1C0
00C380
01C780
07CF00
19BE00
31EE00
601C00
403800
C07000
C0E000
E1C000
7F8000
3E0000
ENDCHAR
STARTCHAR Zacute
ENCODING 377
SWIDTH 850 0
DWIDTH 14 0
BBX 20 23 0 -3
BITMAP
000020
000060
0000C0
000100
0007F0
001C70
0071E0
0063C0
004780
001F00
003C00
00F800
01E000
07C000
0F0000
1E0000
380000
700000
600000
C00000
700180
3FFF80
0FFE00
ENDCHAR
STARTCHAR zacute
ENCODING 378
SWIDTH 375 0
DWIDTH 6 0
BBX 15 21 -6 -7
BITMAP
0002
0006
000C
0030
0030
0064
007C
007C
00B8
0170
00E0
01C0
03C0
04E0
00C0
1FC0
7FC0
61E0
8370
8600
7800
ENDCHAR
STARTCHAR Zdotaccent
ENCODING 379
SWIDTH 850 0
DWIDTH 14 0
BBX 20 21 0 -3
BITMAP
000080
0001C0
0007F0
001C70
0071E0
0063C0
004780
001F00
003C00
00F800
01E000
07C000
0F0000
1E0000
380000
700000
600000
C00000
700180
3FFF80
0FFE00
ENDCHAR
STARTCHAR zdotaccent
ENCODING 380
SWIDTH 375 0
DWIDTH 6 0
BBX 14 20 -6 -7
BITMAP
000C
000C
0020
0030
0064
007C
007C
00B8
0170
00E0
01C0
03C0
04E0
00C0
1FC0
7FC0
61E0
8370
8600
7800
ENDCHAR
STARTCHAR Zcaron
ENCODING 381
SWIDTH 850 0
DWIDTH 14 0
BBX 20 22 0 -3
BITMAP
0000A0
0000E0
000040
0007F0
001C70
0071E0
0063C0
004780
001F00
003C00
00F800
01E000
07C000
0F0000
1E0000
380000
700000
600000
C00000
700180
3FFF80
0FFE00
ENDCHAR
STARTCHAR zcaron
ENCODING 382
SWIDTH 375 0
DWIDTH 6 0
BBX 15 20 -6 -7
BITMAP
0012
001C
0028
0030
0064
007C
007C
00B8
0170
00E0
01C0
03C0
04E0
00C0
1FC0
7FC0
61E0
8370
8600
7800
ENDCHAR
STARTCHAR longs
ENCODING 383
SWIDTH 235 0
DWIDTH 4 0
BBX 11 21 -3 -6
BITMAP
0020
0060
0060
00E0
00C0
0180
0380
0300
0600
0680
0D80
1D00
1A00
3C00
3000
7000
7000
D000
E000
E000
C000
ENDCHAR
STARTCHAR florin
ENCODING 402
SWIDTH 235 0
DWIDTH 4 0
BBX 11 21 -3 -6
BITMAP
0020
0060
0060
00E0
00C0
0180
0380
0300
0600
0680
0D80
1D00
1A00
3C00
3000
7000
7000
D000
E000
E000
C000
ENDCHAR
STARTCHAR uni0218
ENCODING 536
SWIDTH 797 0
DWIDTH 13 0
BBX 19 23 0 -6
BITMAP
0003C0
001FE0
003860
006040
00C0C0
01C380
018180
01C000
01C000
00E000
00F000
307000
787000
E07000
C07000
C0E000
E1C000
7F8000
3E0000
180000
180000
180000
100000
ENDCHAR
STARTCHAR uni0219
ENCODING 537
SWIDTH 309 0
DWIDTH 5 0
BBX 8 16 -1 -5
BITMAP
03
07
06
0E
1C
3C
6C
6C
EC
D8
70
00
60
60
60
40
ENDCHAR
STARTCHAR circumflex
ENCODING 710
SWIDTH 390 0
DWIDTH 6 0
BBX 4 3 2 9
BITMAP
20
70
90
ENDCHAR
STARTCHAR caron
ENCODING 711
SWIDTH 390 0
DWIDTH 6 0
BBX 4 3 2 9
BITMAP
90
70
40
ENDCHAR
STARTCHAR breve
ENCODING 728
SWIDTH 390 0
DWIDTH 6 0
BBX 3 3 2 9
BITMAP
80
E0
C0
ENDCHAR
STARTCHAR dotaccent
ENCODING 729
SWIDTH 601 0
DWIDTH 10 0
BBX 2 2 3 10
BITMAP
C0
C0
ENDCHAR
STARTCHAR ring
ENCODING 730
SWIDTH 390 0
DWIDTH 6 0
BBX 3 4 2 9
BITMAP
60
A0
E0
C0
ENDCHAR
STARTCHAR ogonek
ENCODING 731
SWIDTH 601 0
DWIDTH 10 0
BBX 3 3 2 -2
BITMAP
60
40
C0
ENDCHAR
STARTCHAR tilde
ENCODING 732
SWIDTH 390 0
DWIDTH 6 0
BBX 4 3 2 9
BITMAP
10
F0
20
ENDCHAR
STARTCHAR hungarumlaut
ENCODING 733
SWIDTH 413 0
DWIDTH 7 0
BBX 6 3 2 10
BITMAP
2C
7C
F0
ENDCHAR
STARTCHAR Wgrave
ENCODING 7808
SWIDTH 1308 0
DWIDTH 21 0
BBX 28 22 1 -3
BITMAP
00002000
00007000
00001000
00180810
01FC0030
07EC2030
0F1C3060
1C3870C0
3830E1C0
7070C180
E0E1C300
C1C38600
C1C30C00
03871800
030E3000
071C6000
0E3CC000
0C798000
0CF30000
0DFE0000
0F780000
04700000
ENDCHAR
STARTCHAR wgrave
ENCODING 7809
SWIDTH 670 0
DWIDTH 11 0
BBX 13 13 0 0
BITMAP
0200
0300
0180
0000
1988
1988
3B98
3330
6760
6EC0
CF80
FF00
EE00
ENDCHAR
STARTCHAR Wacute
ENCODING 7810
SWIDTH 1308 0
DWIDTH 21 0
BBX 28 22 1 -3
BITMAP
00000400
00000C00
00001C00
00183010
01FC0030
07EC2030
0F1C3060
1C3870C0
3830E1C0
7070C180
E0E1C300
C1C38600
C1C30C00
03871800
030E3000
071C6000
0E3CC000
0C798000
0CF30000
0DFE0000
0F780000
04700000
ENDCHAR
STARTCHAR wacute
ENCODING 7811
SWIDTH 670 0
DWIDTH 11 0
BBX 13 13 0 0
BITMAP
0020
0060
00C0
0000
1988
1988
3B98
3330
6760
6EC0
CF80
FF00
EE00
ENDCHAR
STARTCHAR Wdieresis
ENCODING 7812
SWIDTH 1308 0
DWIDTH 21 0
BBX 28 21 1 -3
BITMAP
00000400
00003C00
00FC3C10
03FC0030
0F9C3070
1E187060
3C3860C0
7070E1C0
60E1C180
E0E1C300
C1C38600
41870C00
03871800
070E3000
061C6000
0E3CC000
0C798000
0CF30000
0DFE0000
0F780000
00700000
ENDCHAR
STARTCHAR wdieresis
ENCODING 7813
SWIDTH 670 0
DWIDTH 11 0
BBX 13 12 0 0
BITMAP
01B0
01B0
0000
1988
1988
3B98
3330
6760
6EC0
CF80
FF00
EE00
ENDCHAR
STARTCHAR franc
ENCODING 8355
SWIDTH 752 0
DWIDTH 12 0
BBX 20 19 0 -2
BITMAP
000030
003FF0
01FFF0
07F800
1F7000
386000
70E000
61C400
61FC00
67F800
7F0000
360000
7F0000
7E0000
D80000
D80000
300000
300000
100000
ENDCHAR
STARTCHAR lira
ENCODING 8356
SWIDTH 617 0
DWIDTH 10 0
BBX 16 18 0 -3
BITMAP
0018
0018
0038
0030
0070
0060
00C0
03E0
07E0
0300
0780
1F00
1F00
1800
3000
6001
FFFE
03FC
ENDCHAR
STARTCHAR peseta
ENCODING 8359
SWIDTH 1451 0
DWIDTH 23 0
BBX 25 19 1 -2
BITMAP
003F0000
01FF8000
03E38000
0761D800
0EF1D800
1DC1FF00
39C1BE00
7383F300
6703E780
E707C600
DE0D8E00
FC3B9C00
9CE33C00
1F877C00
3006CC00
3007DC00
60077800
20000000
20000000
ENDCHAR
STARTCHAR Euro
ENCODING 8364
SWIDTH 714 0
DWIDTH 11 0
BBX 16 19 0 0
BITMAP
001E
003E
0067
00C7
0187
0386
070E
0600
1F00
3E00
7C00
7C00
F000
6000
6000
6200
6200
6600
7C00
ENDCHAR
STARTCHAR apple
ENCODING 63743
SWIDTH 1249 0
DWIDTH 20 0
BBX 16 13 2 2
BITMAP
0100
0180
0180
0F70
0760
0240
02C0
0360
0400
BBBE
D5FF
3B92
FFFF
ENDCHAR
STARTCHAR f_f
ENCODING 64256
SWIDTH 470 0
DWIDTH 8 0
BBX 15 21 -3 -6
BITMAP
0024
0066
006E
00EC
00DC
0198
03B8
0370
0660
06F0
0DD8
1DB0
1BE0
3FC0
3700
7700
7D00
DE00
EA00
FC00
D800
ENDCHAR
STARTCHAR fi
ENCODING 64257
SWIDTH 498 0
DWIDTH 8 0
BBX 14 21 -3 -6
BITMAP
0020
0064
006C
00EC
00D8
0188
03B0
0370
0660
06E0
0DC8
1D90
1BA0
3FC0
3380
7000
7000
D000
E000
E000
C000
ENDCHAR
STARTCHAR fl
ENCODING 64258
SWIDTH 503 0
DWIDTH 8 0
BBX 15 21 -3 -6
BITMAP
0024
0066
006E
00EC
00DC
0198
03B0
0370
0660
06E8
0DC8
1D90
1BB0
3DE0
31C0
7000
7000
D000
E000
E000
C000
ENDCHAR
STARTCHAR f_f_i
ENCODING 64259
SWIDTH 733 0
DWIDTH 12 0
BBX 18 21 -3 -6
BITMAP
002400
006680
006EC0
00ECC0
00DD80
019880
03BB00
037700
066600
06EC00
0DDD80
1DB900
1BF200
3FFC00
373800
770000
7D0000
DE0000
EA0000
FC0000
D80000
ENDCHAR
STARTCHAR f_f_l
ENCODING 64260
SWIDTH 739 0
DWIDTH 12 0
BBX 19 21 -3 -6
BITMAP
002440
006660
006EE0
00ECC0
00DD80
019B80
03BB00
037700
066600
06EC80
0DDC80
1DB900
1BFA00
3FFC00
371800
770000
7D0000
DE0000
EA0000
FC0000
D80000
ENDCHAR
STARTCHAR longs_t
ENCODING 64261
SWIDTH 504 0
DWIDTH 8 0
BBX 18 20 -3 -6
BITMAP
006600
006600
00EFC0
00DF80
01F800
03B800
037000
076000
06E000
0CC800
1DD800
1BB000
3DE000
39C000
700000
700000
D00000
E00000
E00000
C00000
ENDCHAR
STARTCHAR .notdef
ENCODING -1
SWIDTH 225 0
DWIDTH 4 0
BBX 1 1 0 0
BITMAP
00
ENDCHAR
ENDFONT
